<svg xmlns="http://www.w3.org/2000/svg" viewBox="0 0 48 48">
  <defs>
    <style>
      .cls-1 { fill: #FFBC5E; }
      .cls-2 { fill: #FFDB6E; }
    </style>
  </defs>
  <g id="Binary_Code" data-name="Binary Code">
    <path class="cls-1" d="M33 46H15a1 1 0 0 1 0-2h1.22l1-4h13.56l1 4H33a1 1 0 0 1 0 2z" />
    <path class="cls-2" d="M45 2H3a3 3 0 0 0-3 3v30a3 3 0 0 0 3 3h42a3 3 0 0 0 3-3V5a3 3 0 0 0-3-3zM3 4h42a1 1 0 0 1 1 1v23H2V5a1 1 0 0 1 1-1zm42 32H3a1 1 0 0 1-1-1v-5h44v5a1 1 0 0 1-1 1z" />
    <path class="cls-1" d="M25 33a1 1 0 0 1-2 0 1 1 0 0 1 2 0zM8 7a3 3 0 0 0-3 3v2a3 3 0 0 0 6 0v-2a3 3 0 0 0-3-3zm1 5a1 1 0 0 1-2 0v-2a1 1 0 0 1 2 0zM8 17a3 3 0 0 0-3 3v2a3 3 0 0 0 6 0v-2a3 3 0 0 0-3-3zm1 5a1 1 0 0 1-2 0v-2a1 1 0 0 1 2 0zM32 17a3 3 0 0 0-3 3v2a3 3 0 0 0 6 0v-2a3 3 0 0 0-3-3zm1 5a1 1 0 0 1-2 0v-2a1 1 0 0 1 2 0zM20 17a3 3 0 0 0-3 3v2a3 3 0 0 0 6 0v-2a3 3 0 0 0-3-3zm1 5a1 1 0 0 1-2 0v-2a1 1 0 0 1 2 0zM36 7a3 3 0 0 0-3 3v2a3 3 0 0 0 6 0v-2a3 3 0 0 0-3-3zm1 5a1 1 0 0 1-2 0v-2a1 1 0 0 1 2 0zM24 7a3 3 0 0 0-3 3v2a3 3 0 0 0 6 0v-2a3 3 0 0 0-3-3zm1 5a1 1 0 0 1-2 0v-2a1 1 0 0 1 2 0zM13 8v6a1 1 0 0 0 2 0V8a1 1 0 0 0-2 0zM19 14V8a1 1 0 0 0-2 0v6a1 1 0 0 0 2 0zM13 18v6a1 1 0 0 0 2 0v-6a1 1 0 0 0-2 0zM31 14V8a1 1 0 0 0-2 0v6a1 1 0 0 0 2 0zM37 18v6a1 1 0 0 0 2 0v-6a1 1 0 0 0-2 0zM41 18v6a1 1 0 0 0 2 0v-6a1 1 0 0 0-2 0zM41 8v6a1 1 0 0 0 2 0V8a1 1 0 0 0-2 0zM25 18v6a1 1 0 0 0 2 0v-6a1 1 0 0 0-2 0z" />
  </g>
</svg>
