<svg xmlns="http://www.w3.org/2000/svg" viewBox="0 0 64 64">
  <defs>
    <style>.cls-11{fill:#FFBC5E}</style>
  </defs>
  <g id="_68-JS_Code" data-name="68-JS Code">
    <!-- Adjusted colors -->
    <path style="fill:#FFBC5E" d="M13 54v7l-2 2H7l-2-2v-7h8z"/>
    <path style="fill:#FFDB6E" d="m9 1 4 8-4-1-4 1 4-8z"/>
    <path style="fill:#FFDB6E" d="M13 9v45H5V9l4-1 4 1z"/>
    <path d="M63 3v58a2.006 2.006 0 0 1-2 2H19a2.006 2.006 0 0 1-2-2V3a2.006 2.006 0 0 1 2-2h4v30l5-3 5 3V1h28a2.006 2.006 0 0 1 2 2z" style="fill:#FFBC5E"/>
    <path d="M46.6 34c-7.6 0-7.6-2-15.2-2-7.32 0-7.615 1.847-14.4 
    1.987V61a2.006 2.006 0 0 0 2 2h42a2.006 2.006 0 0 0 2-2V32.022A37.474 37.474 0 0 0 61.8 32c-7.6 0-7.6 2-15.2 2z" style="fill:#FFDB6E"/>
    <path d="M33 4.329V1H23v3.471A26.628 26.628 0 0 1 28.394 4 28.241 28.241 0 0 1 33 4.329z" style="fill:#FFBC5E"/>
    <path style="fill:#FFDB6E" d="M33 1v30l-5-3-5 3V1h10z"/>
    <path d="M58 16a.811.811 0 0 1-.71-.29c-.61-.743-.472-2.689-.31-3.516A1 1 0 0 0 56 11h-2v2h.865a5.866 5.866 0 0 0 .877 3.977 2.717 2.717 0 0 0 1.258.869v.308a2.717 2.717 0 0 0-1.258.869A5.866 5.866 0 0 0 54.865 23H54v2h2a1 1 0 0 0 .98-1.194c-.162-.827-.3-2.773.31-3.516A.811.811 0 0 1 58 20a1 1 0 0 0 1-1v-2a1 1 0 0 0-1-1z" style="fill:#FFBC5E"/>
    <path class="cls-11" d="M37 49.994A2.854 2.854 0 0 1 34 53h-2a1.883 1.883 0 0 1-2-2v-2h-2v2a3.888 3.888 0 0 0 4 4h2a4.821 4.821 0 0 0 5-5V37h-2z"/>
  </g>
</svg>
