<svg xmlns="http://www.w3.org/2000/svg" xml:space="preserve" width="2048" height="2048" style="shape-rendering:geometricPrecision;text-rendering:geometricPrecision;image-rendering:optimizeQuality;fill-rule:evenodd;clip-rule:evenodd">
  <defs>
    <style>
      .fil0 { fill: none }
      .fil1, .fil3 { fill: #FFBC5E }
      .fil3 { fill-rule: nonzero }
    </style>
  </defs>
  <g id="Layer_x0020_1">
    <path class="fil0" d="M0 0h2048v2048H0z" />
    <path class="fil0" d="M255.999 255.999h1536v1536h-1536z" />
    <path class="fil1" d="m1303.19 263.999 328.759 329.158h-269.982c-32.328 0-58.776-26.448-58.776-58.776V263.999z" />
    <path d="M454.851 263.999h848.395v268.747c0 33.228 27.184 60.411 60.411 60.411h268.344V1408c0 22-17.999 40-40 40H454.852c-22 0-39.998-18-39.998-40V304c0-22 17.999-40 39.999-40z" style="fill:#FFDB6E" />
    <path class="fil3" d="M671.999 763.342H1408v64.002H671.999zM671.999 987.337H1408v64.003H671.999z" />
    <path class="fil1" d="M337.396 1226.19h1373.21c22.375 0 42.735 9.234 57.51 24.108 14.738 14.835 23.887 35.238 23.887 57.618v394.353c0 22.381-9.15 42.782-23.887 57.618-14.777 14.874-35.136 24.109-57.51 24.109H337.396c-22.373 0-42.735-9.235-57.512-24.109-14.736-14.833-23.885-35.234-23.885-57.618v-394.353c0-22.381 9.149-42.783 23.885-57.618 14.775-14.874 35.137-24.108 57.512-24.108z" />
    <path d="M711.416 1326.14H843.5c29.75 0 52.416 2.25 68.082 6.834 21 6.166 39 17.166 53.918 33 15 15.75 26.416 35.083 34.25 57.916 7.75 22.916 11.666 51.083 11.666 84.667 0 29.416-3.667 54.834-11 76.167-8.917 26-21.667 47.083-38.333 63.166-12.5 12.25-29.417 21.75-50.75 28.583-15.916 5.083-37.25 7.584-64 7.584H711.416V1326.14zm72.25 60.584v237h53.917c20.167 0 34.75-1.084 43.75-3.417 11.667-2.917 21.417-7.834 29.166-14.834 7.75-7 14.001-18.583 18.917-34.583 4.833-16 7.333-37.917 7.333-65.584 0-27.666-2.5-48.833-7.333-63.666-4.916-14.834-11.75-26.417-20.5-34.667-8.833-8.334-20-13.917-33.5-16.833-10.083-2.334-29.834-3.417-59.333-3.417h-32.417zm289.25-60.584H1216c28.334 0 49.5 1.167 63.416 3.583 13.917 2.334 26.334 7.25 37.334 14.75 11 7.5 20.083 17.417 27.417 29.917 7.333 12.417 11 26.417 11 41.834 0 16.75-4.5 32.166-13.5 46.166-9.083 14-21.334 24.5-36.75 31.5 21.75 6.334 38.584 17.167 50.25 32.416 11.75 15.335 17.584 33.335 17.584 54 0 16.251-3.75 32.084-11.334 47.5-7.584 15.334-17.916 27.667-31 36.835-13.084 9.166-29.25 14.832-48.5 17-12 1.249-41.084 2.083-87.167 2.416h-121.833V1326.14zm72.334 59.583v82.75h47.333c28.166 0 45.667-.416 52.5-1.249 12.334-1.417 22.084-5.667 29.167-12.75 7.083-7.084 10.584-16.417 10.584-28 0-11.084-3-20.084-9.084-27-6.167-6.917-15.25-11.084-27.25-12.5-7.167-.834-27.75-1.25-61.75-1.25h-41.5zm0 142.334v95.667h66.833c26.083 0 42.583-.667 49.583-2.167 10.75-1.916 19.5-6.75 26.25-14.25 6.75-7.583 10.167-17.75 10.167-30.416 0-10.75-2.667-19.834-7.833-27.334-5.25-7.5-12.75-13-22.584-16.417-9.833-3.416-31.25-5.083-64.083-5.083h-58.334z" style="fill:#FFDB6E; fill-rule: nonzero" />
  </g>
</svg>
