<svg xmlns="http://www.w3.org/2000/svg" viewBox="0 0 48 48">
  <g data-name="40-Learning">
    <path fill="#FFBC5E" d="M22 48h-5a1 1 0 0 1-1-1v-8c0-1.841-.857-1.989-1.028-2H9a3.888 3.888 0 0 1-4-4v-3.251A3.581 3.581 0 0 0 3 29a2.916 2.916 0 0 1-3-3 1.006 1.006 0 0 1 .124-.483L5 16.681V15A15.017 15.017 0 0 1 20 0h2v2h-2A13.015 13.015 0 0 0 7 15v1.938a1.013 1.013 0 0 1-.124.484l-4.855 8.8A.878.878 0 0 0 3 27a5.771 5.771 0 0 1 3.663 1.524 1 1 0 0 1 .337.748V33a1.883 1.883 0 0 0 2 2h6c1.038 0 3 .836 3 4v7h4z"/>
    <path fill="#FFDB6E" d="M23 17a3.564 3.564 0 0 1-2.707-1.293C19.8 15.217 19.562 15 19 15v-2a3.564 3.564 0 0 1 2.707 1.293c.49.49.73.707 1.293.707s.8-.217 1.293-.707A3.564 3.564 0 0 1 27 13v2c-.563 0-.8.217-1.293.707A3.564 3.564 0 0 1 23 17z"/>
    <path fill="#FFBC5E" d="M22 16h2v21h-2z"/>
    <path fill="#FFDB6E" d="M31 31h-2a2.916 2.916 0 0 1-3-3V15.236l-3-6-3 6V28a2.916 2.916 0 0 1-3 3h-2a2.916 2.916 0 0 1-3-3v-7h2v7a.918.918 0 0 0 1.012 1H17a.918.918 0 0 0 1-1.012V15a1 1 0 0 1 .105-.447l4-8a1.042 1.042 0 0 1 1.79 0l4 8A1 1 0 0 1 28 15v13a.915.915 0 0 0 1 1h2a.915.915 0 0 0 1-1v-7h2v7a2.916 2.916 0 0 1-3 3z"/>
    <path fill="#FFBC5E" d="M21 9h4v2h-4zM22 39h2v2h-2zM12 17h2v2h-2zM32 17h2v2h-2z"/>
    <path fill="#FFDB6E" d="M27 48h-2v-2h2v-4.462a1 1 0 0 1 .778-.976 16.791 16.791 0 0 0 5.258-2.182 1 1 0 0 1 1.24.14l3.159 3.158 4.243-4.242-3.158-3.16a1 1 0 0 1-.14-1.24 16.791 16.791 0 0 0 2.182-5.258 1 1 0 0 1 .976-.778H46v-6h-4.462a1 1 0 0 1-.976-.778 16.791 16.791 0 0 0-2.182-5.258 1 1 0 0 1 .14-1.24l3.158-3.159-4.242-4.243-3.16 3.158a1 1 0 0 1-1.24.14 16.791 16.791 0 0 0-5.258-2.182A1 1 0 0 1 27 6.462V2h-2V0h2a2 2 0 0 1 2 2v3.681a18.866 18.866 0 0 1 4.414 1.833l2.607-2.606a2 2 0 0 1 2.829 0l4.242 4.242a2 2 0 0 1 0 2.829l-2.606 2.607A18.866 18.866 0 0 1 42.319 19H46a2 2 0 0 1 2 2v6a2 2 0 0 1-2 2h-3.681a18.866 18.866 0 0 1-1.833 4.414l2.606 2.607a2 2 0 0 1 0 2.829l-4.242 4.242a2 2 0 0 1-2.829 0l-2.607-2.606A18.866 18.866 0 0 1 29 42.319V46a2 2 0 0 1-2 2z"/>
  </g>
</svg>
